<?xml version="1.0" encoding="UTF-8" standalone="no"?>
<svg
   xmlns:dc="http://purl.org/dc/elements/1.1/"
   xmlns:cc="http://creativecommons.org/ns#"
   xmlns:rdf="http://www.w3.org/1999/02/22-rdf-syntax-ns#"
   xmlns:svg="http://www.w3.org/2000/svg"
   xmlns="http://www.w3.org/2000/svg"
   xmlns:sodipodi="http://sodipodi.sourceforge.net/DTD/sodipodi-0.dtd"
   xmlns:inkscape="http://www.inkscape.org/namespaces/inkscape"
   aria-hidden="true"
   focusable="false"
   data-prefix="fas"
   data-icon="map"
   class="svg-inline--fa fa-map fa-w-18"
   role="img"
   viewBox="0 0 477 100"
   version="1.1"
   id="svg865"
   sodipodi:docname="logo.svg"
   width="477"
   height="100"
   inkscape:export-filename="/home/fph/logo.png"
   inkscape:export-xdpi="96"
   inkscape:export-ydpi="96"
   inkscape:version="0.92.4 (5da689c313, 2019-01-14)">
  <metadata
     id="metadata871">
    <rdf:RDF>
      <cc:Work
         rdf:about="">
        <dc:format>image/svg+xml</dc:format>
        <dc:type
           rdf:resource="http://purl.org/dc/dcmitype/StillImage" />
        <dc:title></dc:title>
      </cc:Work>
    </rdf:RDF>
  </metadata>
  <defs
     id="defs869" />
  <sodipodi:namedview
     pagecolor="#ffffff"
     bordercolor="#666666"
     borderopacity="1"
     objecttolerance="10"
     gridtolerance="10"
     guidetolerance="10"
     inkscape:pageopacity="0"
     inkscape:pageshadow="2"
     inkscape:window-width="1850"
     inkscape:window-height="1136"
     id="namedview867"
     showgrid="false"
     showguides="true"
     inkscape:guide-bbox="true"
     inkscape:zoom="1.8671875"
     inkscape:cx="257.94593"
     inkscape:cy="138.24493"
     inkscape:window-x="1990"
     inkscape:window-y="27"
     inkscape:window-maximized="1"
     inkscape:current-layer="svg865">
    <sodipodi:guide
       position="478.25941,260.28452"
       orientation="1,0"
       id="guide1689"
       inkscape:locked="false" />
  </sodipodi:namedview>
  <path
     id="path921"
     d="M 94.926028,44.447052 H 90.71688 c -9.898826,0 -14.858004,-11.967272 -7.857731,-18.967543 l 2.974724,-2.978628 a 5.5549047,5.5549047 0 0 0 -7.851867,-7.849912 l -2.97668,2.972774 C 68.005055,24.622058 56.03779,19.664836 56.03779,9.7660079 v -4.20915 a 5.556858,5.556858 0 0 0 -11.113716,0 v 4.211106 c 0,9.8988151 -11.967265,14.8560501 -18.967539,7.8577221 l -2.976673,-2.974717 a 5.5549047,5.5549047 0 0 0 -7.851871,7.849912 l 2.97863,2.978628 c 7.000273,7.000271 2.041095,18.967543 -7.857727,18.967543 H 6.035841 a 5.5568577,5.5568577 0 1 0 0,11.111762 h 4.209146 c 9.898825,0 14.857998,11.969215 7.857728,18.969486 l -2.974724,2.976685 a 5.5568577,5.5568577 0 0 0 7.851871,7.851868 l 2.976673,-2.978628 c 7.000274,-7.000283 18.967539,-2.041105 18.967539,7.857722 v 4.207195 a 5.556858,5.556858 0 0 0 11.113716,0 v -4.203284 c 0,-9.898827 11.967265,-14.858005 18.967536,-7.857734 l 2.97668,2.974729 a 5.5568577,5.5568577 0 0 0 7.851867,-7.851868 L 82.855244,74.5283 C 75.85497,67.528029 80.81415,55.558814 90.712976,55.558814 h 4.207191 a 5.5568577,5.5568577 0 1 0 0,-11.111762 z m -50.695342,8.68198 a 9.3753665,9.3753665 0 1 1 9.37537,-9.375365 9.3753665,9.3753665 0 0 1 -9.37537,9.375365 z m 15.62561,10.937931 a 4.6876832,4.6876832 0 1 1 4.687683,-4.687688 4.6876832,4.6876832 0 0 1 -4.687683,4.687688 z"
     inkscape:connector-curvature="0"
     style="fill:#209cee;fill-opacity:1;stroke:#ffffff;stroke-width:0;stroke-miterlimit:4;stroke-dasharray:none;stroke-opacity:1" />
  <text
     xml:space="preserve"
     style="font-style:normal;font-variant:normal;font-weight:600;font-stretch:condensed;font-size:100.69498444px;line-height:1.25;font-family:'Noto Sans';-inkscape-font-specification:'Noto Sans, Semi-Bold Condensed';font-variant-ligatures:normal;font-variant-caps:normal;font-variant-numeric:normal;font-feature-settings:normal;text-align:start;letter-spacing:-4.18447399px;word-spacing:0px;writing-mode:lr-tb;text-anchor:start;fill:#000000;fill-opacity:1;stroke:none;stroke-width:2.51737452"
     x="99.883034"
     y="85.998459"
     id="text934"><tspan
       sodipodi:role="line"
       id="tspan932"
       x="99.883034"
       y="85.998459"
       style="letter-spacing:-4.18447399px;stroke-width:2.51737452">E<tspan
   style="letter-spacing:-5.84180737px;stroke-width:2.51737452"
   id="tspan1289">X</tspan><tspan
   style="letter-spacing:-6.84090996px;stroke-width:2.51737452"
   id="tspan1211">P</tspan><tspan
   style="letter-spacing:-7.44037056px;stroke-width:2.51737452"
   id="tspan1293">O</tspan><tspan
   id="tspan1495"
   style="letter-spacing:-7.56966639px;stroke-width:2.51737452">S</tspan><tspan
   style="letter-spacing:-9.60313416px;stroke-width:2.51737452"
   id="tspan1499">U</tspan><tspan
   style="letter-spacing:-5.83005333px;stroke-width:2.51737452"
   id="tspan1649">R</tspan>E</tspan></text>
</svg>
